<?xml version="1.0" standalone="no"?>
<!DOCTYPE svg PUBLIC "-//W3C//DTD SVG 20010904//EN"
 "http://www.w3.org/TR/2001/REC-SVG-20010904/DTD/svg10.dtd">
<svg version="1.0" xmlns="http://www.w3.org/2000/svg"
 width="347.000000pt" height="88.000000pt" viewBox="0 0 347.000000 88.000000"
 preserveAspectRatio="xMidYMid meet">

<g transform="translate(0.000000,88.000000) scale(0.100000,-0.100000)"
fill="#000000" stroke="none">
<path d="M180 460 l0 -330 100 0 100 0 0 190 c0 105 3 190 8 190 4 0 41 -45
82 -100 41 -55 78 -100 81 -100 3 0 39 45 80 100 41 54 77 99 82 100 4 0 7
-85 7 -190 l0 -190 100 0 100 0 0 330 0 330 -100 0 -99 0 -83 -105 c-45 -58
-85 -104 -89 -103 -4 2 -44 49 -88 106 l-81 102 -100 0 -100 0 0 -330z"/>
<path d="M2920 460 l0 -330 100 0 100 0 0 330 0 330 -100 0 -100 0 0 -330z"/>
<path d="M2390 667 c-53 -17 -122 -92 -143 -156 -38 -118 -13 -246 63 -321 89
-89 213 -94 283 -11 l27 33 0 -41 0 -41 105 0 105 0 0 265 0 265 -105 0 -105
0 0 -36 0 -36 -27 33 c-47 55 -120 72 -203 46z m183 -188 c28 -12 47 -47 47
-84 0 -92 -111 -129 -167 -56 -16 21 -16 91 0 112 29 37 76 48 120 28z"/>
<path d="M1022 458 c3 -195 4 -205 28 -248 58 -105 207 -121 283 -31 l27 33 0
-41 0 -41 100 0 100 0 0 265 0 265 -99 0 -100 0 -3 -159 c-3 -140 -5 -162 -22
-180 -24 -26 -60 -27 -86 -1 -18 18 -20 33 -20 180 l0 160 -106 0 -106 0 4
-202z"/>
<path d="M1620 633 c16 -48 150 -495 150 -499 0 -3 66 -3 147 -2 l147 3 73
240 c39 132 75 250 78 263 5 22 4 22 -103 22 l-108 0 -38 -162 c-21 -90 -42
-167 -46 -171 -4 -4 -19 45 -34 110 -15 65 -33 141 -40 168 l-12 50 -112 3
-111 3 9 -28z"/>
<path d="M3250 175 c0 -45 0 -45 35 -45 35 0 35 0 35 45 0 45 0 45 -35 45 -35
0 -35 0 -35 -45z"/>
</g>
</svg>
